<svg width="64" height="64" viewBox="0 0 64 64" fill="none" xmlns="http://www.w3.org/2000/svg">
<path fill-rule="evenodd" clip-rule="evenodd" d="M13.6013 25.7345C11.2996 29.088 8.32786 32.2312 4.24073 33.8887L2 28.4152C4.56596 27.3746 6.7195 25.283 8.69793 22.4005C10.5617 19.685 12.0972 16.5355 13.6571 13.3358C13.7623 13.1201 13.8675 12.9041 13.973 12.6881C15.5634 9.43101 17.2892 5.95 19.4235 3.54131C20.5264 2.29659 21.8763 1.17161 23.5516 0.53461C25.2856 -0.124707 27.1452 -0.175525 29.0617 0.389577L29.2117 0.433821L29.3563 0.493522C31.8112 1.50743 33.4897 3.27145 34.2047 5.64695C34.8658 7.84374 34.6026 10.2356 34.007 12.4843C32.8202 16.9652 29.9047 22.2988 26.8205 27.542C25.8803 29.1403 24.919 30.7389 23.9626 32.3294C21.6841 36.1185 19.4331 39.862 17.5601 43.4473C14.8448 48.645 13.3332 52.791 13.4465 55.6255C13.4871 56.6417 14.2076 57.5562 15.5689 57.9429C16.9474 58.3344 18.262 57.9557 18.9861 57.0504C20.284 55.4278 21.5573 53.0153 22.8705 49.9541C24.0822 47.1292 25.2499 43.9436 26.479 40.59C26.5703 40.3412 26.6618 40.0914 26.7538 39.8407C29.3461 32.7736 32.2833 24.8617 36.3291 19.5921C39.551 15.3956 45.2443 12.5247 50.9585 14.0447C59.395 16.289 63.4855 25.5305 61.5096 34.0997C59.4501 43.0321 51.1267 51.2065 35.3142 53.3634L34.508 47.5077C48.5307 45.595 54.3491 38.731 55.7218 32.7776C57.1783 26.461 53.9916 20.9695 49.4252 19.7548C46.594 19.0016 43.1963 20.3819 41.0474 23.1808C37.6643 27.5873 35.0185 34.5436 32.3319 41.8678C32.2359 42.1294 32.1399 42.3914 32.0438 42.6535C30.8303 45.9649 29.6093 49.2966 28.3318 52.2749C26.9646 55.4622 25.4408 58.4702 23.6319 60.7317C21.108 63.8871 17.1116 64.5275 13.9393 63.6264C10.7498 62.7205 7.67966 60.0306 7.51294 55.8605C7.33024 51.2905 9.5984 45.8757 12.2915 40.7206C14.251 36.9697 16.6509 32.9785 18.9684 29.1242C19.9023 27.5709 20.8229 26.0399 21.6959 24.5558C24.8307 19.2266 27.3161 14.5601 28.2649 10.9776C28.7372 9.19459 28.7256 8.03894 28.5161 7.34293C28.3685 6.85247 28.0784 6.40088 27.2255 6.01535C26.5456 5.84094 26.0691 5.90443 25.6707 6.05589C25.1852 6.24053 24.5896 6.64671 23.8772 7.45073C22.3808 9.13952 20.9962 11.8263 19.314 15.2716C19.197 15.5112 19.0788 15.7538 18.9594 15.9989C17.4434 19.1117 15.7247 22.6407 13.6013 25.7345Z" fill="white"/>
</svg>
