<svg width="640" height="105" viewBox="0 0 640 105" fill="none" xmlns="http://www.w3.org/2000/svg">
<path d="M18.3856 104.094H0V1.80191H53.1955C64.482 1.80191 73.3794 4.62701 79.7553 10.1402C86.1274 15.7944 89.3154 23.7095 89.3154 33.8855C89.3154 44.0615 86.1274 51.8355 79.7553 57.4898C73.3794 63.144 64.4858 65.9691 53.1955 65.9691H18.3856V104.094ZM18.3856 49.5142H52.1353C57.8448 49.5142 62.9864 48.2407 66.1706 45.6977C69.226 43.1547 70.82 38.4113 70.82 33.8895C70.82 29.3678 69.226 24.6243 66.1706 22.0814C62.9827 19.5384 57.8448 18.2648 52.1353 18.2648H18.3856V49.5142Z" fill="white"/>
<path d="M99.1309 103.779H155.285V86.716H117.562V1.46745H99.1309V103.779Z" fill="white"/>
<path d="M264.448 103.779H282.879V43.6459C282.879 27.4732 291.693 17.1078 305.717 17.1078C319.741 17.1078 327.889 27.0702 327.889 43.6459V103.783H346.32V39.9463C346.32 17.3455 331.895 0 309.326 0C296.369 0 287.423 7.95944 282.879 14.5003V1.46695H264.448V103.779Z" fill="white"/>
<path d="M357.607 103.779H376.038V43.6459C376.038 27.4732 384.853 17.1078 398.343 17.1078C411.833 17.1078 420.514 27.0702 420.514 43.6459V103.783H438.945V39.9463C438.945 17.3455 424.388 0 401.951 0C389.396 0 380.446 7.95944 376.038 14.5003V1.46695H357.607V103.779Z" fill="white"/>
<path d="M494.731 0C467.887 0 448.252 23.1731 448.252 53.5963C448.252 84.0195 468.019 104.633 496.332 104.633C528.655 104.633 539.873 80.4649 540.407 73.2148H522.866C522.033 76.6403 514.763 87.6465 496.332 87.6465C479.772 87.6465 467.512 75.0283 466.838 56.7236H541.342C541.743 23.1731 521.976 0 494.731 0ZM467.417 40.8007C470.162 26.2641 481.241 17.1078 494.731 17.1078C507.286 17.1078 518.247 25.4581 521.643 40.8007H467.417Z" fill="white"/>
<path d="M590.183 1.46745H551.05V103.779H590.183C620.102 103.779 640.002 83.3308 640.002 52.6255C640.002 21.9202 620.098 1.46745 590.183 1.46745ZM589.782 86.8611H569.613V17.9586H589.782C609.682 17.9586 621.571 29.8756 621.571 52.6214C621.571 73.8036 609.682 86.8611 589.782 86.8611Z" fill="white"/>
<path d="M254.729 85.3212C249.202 85.3212 247.286 82.9232 247.286 76.06V39.8053C247.286 16.4911 231.925 0 203.878 0C175.83 0 164.21 18.482 162.609 30.1371H181.35C182.035 26.6631 188.517 17.1037 203.878 17.1037C218.435 17.1037 228.605 24.6481 228.855 39.5191H198.403C174.63 39.5191 160.337 50.1828 160.337 70.9377C160.337 91.6927 177.568 104.915 200.269 104.915C215.361 104.915 225.379 97.2381 230.32 90.1291C233.576 98.5842 242.288 103.118 254.726 103.735H255.862V85.3171H254.726L254.729 85.3212ZM228.855 64.6871C228.855 80.4689 216.035 86.913 201.477 86.913C188.79 86.913 179.306 81.4885 179.306 70.5388C179.306 60.1613 186.919 55.4461 198.937 55.4461H228.855V64.6871Z" fill="white"/>
</svg>
